<svg xmlns="http://www.w3.org/2000/svg" xmlns:xlink="http://www.w3.org/1999/xlink" width="426" height="413" viewBox="0 0 426 413">
  <defs>
    <clipPath id="clip-path">
      <path id="Path_880" data-name="Path 880" d="M96.859,52h426V465h-426Zm0,0" fill="#21bf73"/>
    </clipPath>
  </defs>
  <g id="login" transform="translate(143.141 2365.141)">
    <g id="Group_1145" data-name="Group 1145">
      <g id="Group_1144" data-name="Group 1144" transform="translate(-240 -2417.141)" clip-path="url(#clip-path)">
        <path id="Path_879" data-name="Path 879" d="M510.324,355.539a173.665,173.665,0,0,0,12.535-65.023c0-73.844-46.254-137.055-111.273-162.3a19.589,19.589,0,0,0,4.492-7.266,11.137,11.137,0,0,0-2.937-11.586c2.937-2.855,5.793-7.867,5.707-12.711-.086-3.2-1.559-8.734-10.289-11.328a16.843,16.843,0,0,0-4.067-14.957c-2.594-2.77-8.558-6.746-19.367-4.066a16.434,16.434,0,0,0-7.867-10.375c-5.707-3.285-12.192-2.855-18.156,1.125-2.161-2.422-5.707-3.98-10.032-4.41a18.462,18.462,0,0,0-16.511,7.09,13.838,13.838,0,0,0-11.5-.777A13.121,13.121,0,0,0,312.41,68.98c-4.754-.344-8.211.691-10.461,3.2-2.851,3.2-2.765,7.785-2.422,10.465-2.937,1.125-7.953,3.891-9.336,9.855-1.382,6.055,2.508,9.859,5.793,11.676-.261,2.679.778,6.4,5.36,9.078a11.192,11.192,0,0,0,5.707,1.73c-.258,1.469-.778,3.805-1.211,6.829A174.4,174.4,0,0,0,175.8,270.973H99.281a2.173,2.173,0,0,0-1.9,1.039,2.394,2.394,0,0,0-.258,2.16l14.785,36.664a2.356,2.356,0,0,0,2.16,1.469h61.907c.433,3.633,1.039,7.265,1.73,10.894H118.91a2.166,2.166,0,0,0-1.9,1.039,2.394,2.394,0,0,0-.262,2.16l55.336,137.055a2.361,2.361,0,0,0,2.164,1.469H348.813c1.644,0,3.285-.086,4.929-.172,1.988-.086,3.891-.086,5.879-.172h.172c3.027-.172,5.965-.433,8.992-.777.606-.086,1.211-.176,1.817-.262,2.507-.344,5.1-.691,7.609-1.125.777-.086,1.469-.258,2.246-.344,2.336-.433,4.668-.953,7-1.468.691-.176,1.383-.262,2.074-.434,3.547-.863,7-1.816,10.465-2.855a166.185,166.185,0,0,0,24.293-9.512c3.285-1.555,6.484-3.2,9.684-4.926,1.382-.781,2.769-1.645,4.152-2.508,1.383-.777,2.766-1.644,4.062-2.422a173.163,173.163,0,0,0,46.086-42.629c2.418-3.2,4.668-6.484,6.828-9.859v-.086c2.165-3.371,4.239-6.742,6.141-10.117,1.125-2.074,2.16-4.149,3.2-6.223,1.125-2.25,2.16-4.5,3.2-6.746C508.508,359.777,509.461,357.617,510.324,355.539Zm-4.582-1.121a166.776,166.776,0,0,1-8.734,18.156A157.561,157.561,0,0,1,484.3,392.117a169.6,169.6,0,0,1-44.875,41.5c-2.68,1.731-5.363,3.285-8.043,4.844a170.112,170.112,0,0,1-41.328,16.34l-15.563-38.649,60.09-1.988h.086l18.852-.867a2.295,2.295,0,0,0-.262-4.582l-16.426.777V311.7a2.336,2.336,0,0,0-4.672,0v97.969L372.5,411.66,337.4,324.41a2.354,2.354,0,0,0-2.16-1.469H257.68V291.465a2.334,2.334,0,0,0-4.668,0v31.476H211.336l3.547-10.808h10.289a2.174,2.174,0,0,0,1.9-1.039,2.393,2.393,0,0,0,.258-2.16l-6.312-15.653,1.816-5.531a89.537,89.537,0,0,1,66.059-60.1c.171.348.257.778.433,1.125.258.52.516,1.125.949,1.9,2.942,6.136,10.032,20.664,32.078,37.785-1.644,4.066-2.765,9.683-1.816,17.207a44.173,44.173,0,0,1-6.141,28.621,2.337,2.337,0,0,0,.606,3.2,2.563,2.563,0,0,0,1.3.434,2.26,2.26,0,0,0,1.9-1.039,49.035,49.035,0,0,0,6.918-31.907,30.15,30.15,0,0,1,1.039-13.746c3.719,2.68,7.7,5.446,12.192,8.215a1.986,1.986,0,0,0,1.211.344h.429a159.2,159.2,0,0,0,17.813-4.754,77.894,77.894,0,0,0,4.148,15.3,49.944,49.944,0,0,1,2.336,30.437,2.242,2.242,0,0,0,1.555,2.852,1.929,1.929,0,0,0,.7.086,2.209,2.209,0,0,0,2.16-1.641c.172-.605,4.754-15.394-2.422-33.551a74.019,74.019,0,0,1-3.976-15.132c19.539-6.918,46.777-20.321,59.746-43.582a8.3,8.3,0,0,0,.863-2.852,90.247,90.247,0,0,1,71.5,70.387ZM308.867,133.66a16.108,16.108,0,0,1,5.016-.949,15.218,15.218,0,0,1,0,30.437,14.3,14.3,0,0,1-6.66-1.644A230.648,230.648,0,0,1,308.867,133.66Zm25.16,16.688h.692a19.761,19.761,0,0,0,39.34-.692l6.746-2.765c.086,0,.086-.086.172-.086a.314.314,0,0,1,.257-.086c1.645-1.125,3.028-1.559,4.325-1.211,1.73.43,3.113,2.16,3.976,3.543a11.811,11.811,0,0,1,.692,5.363c-.606,7.09-3.715,14.008-7.868,17.293a6.478,6.478,0,0,1-4.754,1.731,2.366,2.366,0,0,0-2.593,1.726c-2.942,11.5-.782,38.738-.176,45.742-14.09,6.66-24.813,2.336-28.617.348,1.039-4.324,1.039-11.5.863-14.961,3.461-1.383,11.848-5.359,17.465-12.969a2.29,2.29,0,1,0-3.715-2.679c-6.227,8.386-16.773,11.933-16.863,11.933-10.895,3.715-19.453,2.938-25.332-2.336-7.524-6.66-10.547-19.543-11.239-33.379a20.5,20.5,0,0,0,6.485,1.211,19.714,19.714,0,0,0,14.609-6.484A33.019,33.019,0,0,1,324,173a2.287,2.287,0,0,0,1.988,3.547,2.167,2.167,0,0,0,1.9-1.039C333.941,165.914,334.285,155.191,334.027,150.348Zm5.1-2.332a15.217,15.217,0,1,1,15.219,15.218A15.242,15.242,0,0,1,339.129,148.016ZM356.941,270.2c-8.386,2.766-14.785,4.325-17.035,4.844-4.324-2.684-8.215-5.363-11.758-7.957a15.423,15.423,0,0,1,3.286-3.719,2.314,2.314,0,0,0-2.508-3.89,16.306,16.306,0,0,0-4.41,4.757C303.852,248.059,297.2,234.4,294.426,228.6c-.43-.867-.778-1.558-1.035-2.078a5.853,5.853,0,0,1,0-5.1c1.382-3.371,5.015-6.051,9.855-7.348a14.833,14.833,0,0,1,3.977-.6c3.461,0,5.015,1.726,5.535,2.593-.692,3.2-1.817,13.747,8.039,29.571a2.4,2.4,0,0,0,1.992,1.125,1.983,1.983,0,0,0,1.207-.344,2.261,2.261,0,0,0,.692-3.2c-9.684-15.481-7.782-25.078-7.434-26.461.434-.52,4.582-4.324,25.332-4.93a40.158,40.158,0,0,1-.258,4.668,48.785,48.785,0,0,0-8.82,3.8c-.086.09-.172.176-.258.262a1.687,1.687,0,0,0-.52.6.084.084,0,0,0-.085.086.522.522,0,0,0-.086.348,1.222,1.222,0,0,0-.176.515c-.086.867-1.469,21.617,10.551,40.641a2.4,2.4,0,0,0,1.988,1.125,2,2,0,0,0,1.211-.344c1.383-.867,33.2-20.5,43.574-40.125a1.639,1.639,0,0,0,.262-.863,4.365,4.365,0,0,0-.172-1.039v-.172a.087.087,0,0,0-.09-.086,1.749,1.749,0,0,0-.691-.691c-.086,0-.086-.086-.172-.086h-.086a49.285,49.285,0,0,0-9.512-3.805c-.086-.692-.086-1.473-.172-2.25,12.535,2.508,15.824,6.055,15.824,6.055v.086c1.122,1.468.692,7.781-14.007,19.195a2.339,2.339,0,0,0-.434,3.285,2.178,2.178,0,0,0,1.816.867,1.969,1.969,0,0,0,1.383-.519c10.289-7.957,15.649-14.961,16.082-20.754a8.043,8.043,0,0,0-.258-2.594c2.075-.777,6.223-1.645,12.364,1.039,4.5,1.988,5.621,3.8,5.965,4.754a2.085,2.085,0,0,1-.086,1.816c-12.02,21.532-37.61,34.328-56.461,41.161-.52-4.325-.606-7.176-.606-7.266a2.247,2.247,0,0,0-2.332-2.246,2.309,2.309,0,0,0-2.25,2.336C356.16,261.809,356.336,265.266,356.941,270.2ZM382.1,224.453a32.574,32.574,0,0,1-21.446,8.215,29.542,29.542,0,0,1-20.922-8.215h3.114a.649.649,0,0,0,.343.172,5.41,5.41,0,0,0,.692.348c15.3,8.906,30.867,1.211,34.066-.606H382.1ZM311.98,114.293v-.176c0-.172.086-.344.086-.515a13.853,13.853,0,0,0,4.582-4.672,13.872,13.872,0,0,0,9.942,4.582c3.98,0,6.918-2.332,8.992-4.754a10.842,10.842,0,0,0,8.563,6.656c5.445.867,9.507-2.332,11.929-5.707,3.2,5.449,8.735,11.414,16.082,10.551a13.069,13.069,0,0,0,6.141,10.461l-.52,12.367-3.8,1.555a19.775,19.775,0,0,0-39.168.953H333.68a19.818,19.818,0,0,0-19.625-17.555,19.3,19.3,0,0,0-4.41.52C310.77,120.172,311.895,114.465,311.98,114.293ZM115.711,307.465l-12.969-32H208.828l12.973,32ZM175.8,460l-53.52-132.473h211.4L385.559,455.93A168.212,168.212,0,0,1,348.727,460Zm0,0" fill="#21bf73"/>
      </g>
    </g>
    <path id="Path_881" data-name="Path 881" d="M234.855,393.848a22.941,22.941,0,0,0,3.633,6.05c4.754,5.965,12.188,10.032,19.106,10.032,4.5,0,8.129-1.731,10.289-4.93a11.927,11.927,0,0,0,.867-1.816,14.1,14.1,0,0,0-.262-11.067c-3.629-8.992-13.66-16.082-22.738-16.082a13.331,13.331,0,0,0-7.09,1.9,9.488,9.488,0,0,0-3.2,2.937,10.01,10.01,0,0,0-1.559,4.238A15.63,15.63,0,0,0,234.855,393.848Zm10.9-13.231c7.09,0,15.563,6.051,18.414,13.141,1.387,3.375,1.3,6.488-.086,8.562-1.211,1.817-3.543,2.942-6.484,2.942-7.09,0-15.563-6.055-18.414-13.231-1.387-3.285-1.3-6.488.172-8.562C240.477,381.652,242.809,380.617,245.75,380.617Zm0,0" transform="translate(-240 -2417.141)" fill="#21bf73"/>
    <path id="Path_882" data-name="Path 882" d="M422.652,227.047a8.271,8.271,0,0,1-.867,2.855c-12.969,23.344-40.2,36.661-59.742,43.578a75.418,75.418,0,0,0,3.977,15.133c7.175,18.16,2.593,32.946,2.418,33.551a2.393,2.393,0,0,1-2.161,1.641,1.912,1.912,0,0,1-.691-.086,2.307,2.307,0,0,1-1.555-2.852A50.01,50.01,0,0,0,361.7,290.43a84.367,84.367,0,0,1-4.148-15.3,140.235,140.235,0,0,1-17.813,4.754H339.3a2,2,0,0,1-1.211-.344c-4.5-2.769-8.473-5.535-12.192-8.215a30.087,30.087,0,0,0-1.035,13.746,48.713,48.713,0,0,1-6.918,31.911,2.377,2.377,0,0,1-1.9,1.035,2.343,2.343,0,0,1-1.9-3.629,44.84,44.84,0,0,0,6.14-28.625c-.953-7.52.086-13.141,1.813-17.207-22.047-17.121-29.137-31.645-32.074-37.785-.348-.778-.692-1.383-.954-1.9-.171-.347-.257-.777-.433-1.125a89.672,89.672,0,0,0-66.055,60.1l-1.816,5.531,6.312,15.653a2.373,2.373,0,0,1-2.164,3.2H214.621l-3.543,10.808h41.676V291.555a2.334,2.334,0,1,1,4.668,0v31.472h77.555a2.361,2.361,0,0,1,2.164,1.469l35.277,87.25,59.656-1.988V311.7a2.336,2.336,0,0,1,4.672,0v97.8l16.426-.777a2.367,2.367,0,0,1,2.422,2.16,2.314,2.314,0,0,1-2.16,2.422l-18.852.867H434.5l-60.09,1.988L389.969,454.8a164.72,164.72,0,0,0,41.328-16.34c2.766-1.559,5.449-3.113,8.043-4.844a169.52,169.52,0,0,0,44.871-41.5,169.5,169.5,0,0,0,21.445-37.7l-11.586-57.07C486.895,261.2,458.016,233.707,422.652,227.047Zm0,0" transform="translate(-240 -2417.141)" fill="#fff"/>
    <path id="Path_883" data-name="Path 883" d="M358.41,259.129a2.248,2.248,0,0,1,2.336,2.246c0,.086.086,3.027.6,7.266,18.765-6.832,44.445-19.629,56.461-41.161a2.228,2.228,0,0,0,.086-1.816c-.344-.953-1.469-2.855-5.965-4.758-6.137-2.679-10.289-1.9-12.364-1.035a10.964,10.964,0,0,1,.258,2.594q-.644,8.689-16.082,20.754a2.293,2.293,0,0,1-1.383.515,2.432,2.432,0,0,1-1.816-.863,2.349,2.349,0,0,1,.434-3.285c14.7-11.414,15.043-17.727,14.007-19.195v-.09s-3.285-3.543-15.824-6.051c.086.777.086,1.555.172,2.246a66.285,66.285,0,0,1,9.512,3.8h.086c.086,0,.086.09.175.09a2.644,2.644,0,0,1,.692.691.084.084,0,0,0,.086.086v.172a1.5,1.5,0,0,1,.172,1.039,1.669,1.669,0,0,1-.258.863c-10.375,19.629-42.2,39.344-43.578,40.121a1.974,1.974,0,0,1-1.211.348,2.213,2.213,0,0,1-1.988-1.125c-12.02-19.109-10.637-39.777-10.547-40.641a1.234,1.234,0,0,1,.172-.519.522.522,0,0,1,.085-.344.084.084,0,0,0,.086-.086,3.612,3.612,0,0,1,.52-.6c.086-.09.172-.176.258-.262a48.784,48.784,0,0,1,8.82-3.8q.129-2.2.258-4.668c-20.75.606-24.9,4.41-25.332,4.93-.344,1.3-2.336,10.98,7.437,26.457a2.357,2.357,0,0,1-.691,3.2,1.98,1.98,0,0,1-1.211.348,2.205,2.205,0,0,1-1.988-1.125c-9.946-15.824-8.735-26.371-8.043-29.57-.52-.868-2.074-2.6-5.531-2.6a15,15,0,0,0-3.981.6c-4.84,1.387-8.473,4.067-9.855,7.352a5.853,5.853,0,0,0,0,5.1q.386.78,1.039,2.075c2.765,5.793,9.336,19.457,30.086,35.625a17.846,17.846,0,0,1,4.41-4.754,2.314,2.314,0,0,1,2.508,3.89,13.607,13.607,0,0,0-3.286,3.719c3.547,2.594,7.438,5.274,11.758,7.953a162.815,162.815,0,0,0,17.035-4.84c-.605-4.929-.777-8.39-.777-8.734A2.187,2.187,0,0,1,358.41,259.129Zm0,0" transform="translate(-240 -2417.141)" fill="#fff"/>
    <path id="Path_884" data-name="Path 884" d="M343.883,225.059a2.675,2.675,0,0,0-.692-.348.649.649,0,0,0-.343-.172h-3.114a29.917,29.917,0,0,0,20.922,8.215,32.122,32.122,0,0,0,21.446-8.215h-4.067C374.75,226.355,359.188,234.051,343.883,225.059Zm0,0" transform="translate(-240 -2417.141)" fill="#fff"/>
    <path id="Path_885" data-name="Path 885" d="M329.184,148.016A15.24,15.24,0,0,0,313.969,132.8a13.621,13.621,0,0,0-5.016.949,215.887,215.887,0,0,0-1.644,28.016,15.04,15.04,0,0,0,21.875-13.746ZM311.633,154.5a4.67,4.67,0,1,1,4.668,4.668A4.7,4.7,0,0,1,311.633,154.5Zm0,0" transform="translate(-240 -2417.141)" fill="#fff"/>
    <path id="Path_886" data-name="Path 886" d="M309.559,128.645a18.2,18.2,0,0,1,4.41-.52,19.758,19.758,0,0,1,19.625,17.555h1.125a19.774,19.774,0,0,1,39.168-.95l3.8-1.558.52-12.363a13.52,13.52,0,0,1-6.141-10.465c-7.347.867-12.882-5.1-16.082-10.547-2.422,3.371-6.484,6.57-11.929,5.707a10.853,10.853,0,0,1-8.563-6.66c-2.074,2.422-5.016,4.758-8.992,4.758a13.871,13.871,0,0,1-9.941-4.586,14.719,14.719,0,0,1-4.583,4.672c0,.171-.085.343-.085.515v.176C311.895,114.465,310.77,120.172,309.559,128.645Zm0,0" transform="translate(-240 -2417.141)" fill="#fff"/>
    <path id="Path_887" data-name="Path 887" d="M354.348,163.234a15.218,15.218,0,1,0-15.219-15.218A15.239,15.239,0,0,0,354.348,163.234Zm-3.2-13.4a4.668,4.668,0,1,1-4.671,4.668A4.648,4.648,0,0,1,351.148,149.832Zm0,0" transform="translate(-240 -2417.141)" fill="#fff"/>
    <path id="Path_888" data-name="Path 888" d="M325.984,176.375a2.456,2.456,0,0,1-1.3-.344,2.358,2.358,0,0,1-.692-3.2,33.019,33.019,0,0,0,4.5-11.414,19.71,19.71,0,0,1-14.609,6.484,18.354,18.354,0,0,1-6.485-1.211c.778,13.836,3.715,26.719,11.239,33.379,5.965,5.274,14.441,6.051,25.332,2.332.09,0,10.636-3.629,16.863-11.929a2.29,2.29,0,1,1,3.715,2.679c-5.617,7.61-14,11.586-17.465,12.969.086,3.461.176,10.637-.863,14.961,3.8,1.988,14.527,6.313,28.617-.348-.606-6.918-2.766-34.242.176-45.742a2.316,2.316,0,0,1,2.593-1.73,6.459,6.459,0,0,0,4.754-1.727c4.153-3.285,7.262-10.289,7.868-17.293a10.737,10.737,0,0,0-.692-5.363,8.349,8.349,0,0,0-3.976-3.547,4.927,4.927,0,0,0-4.325,1.211.305.305,0,0,1-.257.09c-.086,0-.086.086-.172.086l-6.746,2.765a19.761,19.761,0,0,1-39.34.692h-.692c.258,4.844-.086,15.652-6.14,24.988A2.156,2.156,0,0,1,325.984,176.375Zm5.364,8.477a10.773,10.773,0,0,0,7.7,1.121c3.023-.778,5.621-3.024,7.781-6.828a2.342,2.342,0,1,1,4.063,2.332c-2.852,4.929-6.485,8.043-10.809,9.082a15.017,15.017,0,0,1-3.285.429,16.139,16.139,0,0,1-7.867-2.16,2.337,2.337,0,0,1-.692-3.2A2.172,2.172,0,0,1,331.348,184.852Zm0,0" transform="translate(-240 -2417.141)" fill="#fff"/>
    <path id="Path_889" data-name="Path 889" d="M320.973,154.5a4.67,4.67,0,1,0-4.672,4.668A4.706,4.706,0,0,0,320.973,154.5Zm0,0" transform="translate(-240 -2417.141)" fill="#21bf73"/>
    <path id="Path_890" data-name="Path 890" d="M351.148,159.168a4.668,4.668,0,1,0-4.671-4.668A4.706,4.706,0,0,0,351.148,159.168Zm0,0" transform="translate(-240 -2417.141)" fill="#21bf73"/>
    <path id="Path_891" data-name="Path 891" d="M328.84,188.742a16.139,16.139,0,0,0,7.867,2.16,11.156,11.156,0,0,0,3.285-.429c4.324-1.039,7.867-4.067,10.809-9.082a2.342,2.342,0,1,0-4.063-2.332c-2.164,3.8-4.843,6.136-7.781,6.828a11.446,11.446,0,0,1-7.7-1.121,2.35,2.35,0,0,0-3.2.691A2.505,2.505,0,0,0,328.84,188.742Zm0,0" transform="translate(-240 -2417.141)" fill="#21bf73"/>
    <path id="Path_892" data-name="Path 892" d="M348.813,460a168.212,168.212,0,0,0,36.832-4.066L333.77,327.523H122.281L175.8,459.91H348.813ZM235.375,380.961a11.448,11.448,0,0,1,3.2-2.938,13.335,13.335,0,0,1,7.09-1.9c9.078,0,19.02,7.09,22.738,16.082a14.081,14.081,0,0,1,.258,11.067,16.676,16.676,0,0,1-.863,1.816c-2.16,3.2-5.793,4.93-10.289,4.93-6.918,0-14.352-4.153-19.11-10.032a25.58,25.58,0,0,1-3.628-6.05,16.257,16.257,0,0,1-1.04-8.649A12.887,12.887,0,0,1,235.375,380.961Zm0,0" transform="translate(-240 -2417.141)" fill="#fff"/>
    <path id="Path_893" data-name="Path 893" d="M239.09,392.117c2.941,7.176,11.328,13.231,18.418,13.231,2.941,0,5.187-1.039,6.484-2.942,1.469-2.16,1.469-5.187.086-8.558-2.851-7.094-11.324-13.145-18.414-13.145-2.941,0-5.187,1.039-6.484,2.852C237.793,385.633,237.793,388.832,239.09,392.117Zm0,0" transform="translate(-240 -2417.141)" fill="#fff"/>
    <text id="LWR" transform="translate(-105.5 -2119.278)" fill="#21bf73" stroke="#21bf73" stroke-width="1" font-size="22" font-family="Poppins-Regular, Poppins"><tspan x="0" y="0">LWR</tspan></text>
  </g>
</svg>
